<mxfile host="app.diagrams.net" modified="2023-07-11T09:11:58.973Z" agent="Mozilla/5.0 (Windows NT 10.0; Win64; x64) AppleWebKit/537.36 (KHTML, like Gecko) Chrome/114.0.0.0 Safari/537.36" version="21.5.1" etag="Qy1Hg6rb0wjl1FKwNt7Z" type="github">
  <diagram name="Page-1" id="ub8uB4HLRKGlFlHKy2ON">
    <mxGraphModel>
      <root>
        <mxCell id="0" />
        <mxCell id="1" parent="0" />
      </root>
    </mxGraphModel>
  </diagram>
</mxfile>
